<svg width="20" height="26" viewBox="0 0 20 26" fill="none" xmlns="http://www.w3.org/2000/svg">
<path d="M13.5355 10.2855C14.4732 9.34785 15 8.07608 15 6.75C15 5.42392 14.4732 4.15215 13.5355 3.21447C12.5979 2.27678 11.3261 1.75 10 1.75C8.67392 1.75 7.40215 2.27678 6.46447 3.21447C5.52678 4.15215 5 5.42392 5 6.75C5 8.07608 5.52678 9.34785 6.46447 10.2855C7.40215 11.2232 8.67392 11.75 10 11.75C11.3261 11.75 12.5979 11.2232 13.5355 10.2855Z" stroke="#111928" stroke-width="2" stroke-linecap="round" stroke-linejoin="round"/>
<path d="M3.81282 18.0628C5.45376 16.4219 7.67936 15.5 10 15.5C12.3206 15.5 14.5462 16.4219 16.1872 18.0628C17.8281 19.7038 18.75 21.9294 18.75 24.25H1.25C1.25 21.9294 2.17187 19.7038 3.81282 18.0628Z" stroke="#111928" stroke-width="2" stroke-linecap="round" stroke-linejoin="round"/>
</svg>
