<svg width="22" height="18" viewBox="0 0 22 18" fill="none" xmlns="http://www.w3.org/2000/svg">
<path d="M21.3853 9C21.3853 9.82969 20.7443 10.5 19.8977 10.5H5.22776L10.2692 15.4406C10.8671 16.0266 10.8671 16.9758 10.2692 17.5617C9.96787 17.8547 9.57565 18 9.18343 18C8.79121 18 8.39995 17.8535 8.10148 17.5605L0.448422 10.0605C-0.149474 9.47461 -0.149474 8.52539 0.448422 7.93945L8.10148 0.439453C8.69938 -0.146484 9.66797 -0.146484 10.2659 0.439453C10.8638 1.02539 10.8638 1.97461 10.2659 2.56055L5.22776 7.5H19.8977C20.7443 7.5 21.3853 8.17031 21.3853 9Z" fill="#333333"/>
</svg>
