<svg width="34" height="34" viewBox="0 0 34 34" fill="none" xmlns="http://www.w3.org/2000/svg">
<g filter="url(#filter0_d_2159_48252)">
<circle cx="17" cy="17" r="15" fill="white"/>
<path d="M12.6211 10.3346H15.5079C15.8531 10.3346 16.1329 10.6144 16.1329 10.9596C16.1329 11.276 15.8978 11.5375 15.5928 11.5789L15.5079 11.5846H12.6211C11.6287 11.5846 10.8164 12.3555 10.7504 13.3312L10.7461 13.4596V21.3762C10.7461 22.3686 11.5171 23.181 12.4927 23.247L12.6211 23.2512H20.5384C21.5308 23.2512 22.3431 22.4803 22.409 21.5046L22.4134 21.3762V20.9615C22.4134 20.6162 22.6932 20.3365 23.0384 20.3365C23.3548 20.3365 23.6163 20.5715 23.6577 20.8766L23.6634 20.9615V21.3762C23.6634 23.0465 22.3531 24.4106 20.7044 24.4969L20.5384 24.5012H12.6211C10.9509 24.5012 9.5867 23.191 9.50043 21.5422L9.49609 21.3762V13.4596C9.49609 11.7894 10.8064 10.4252 12.4551 10.3389L12.6211 10.3346H15.5079H12.6211ZM19.0828 12.4345V10.1262C19.0828 9.60627 19.6718 9.3262 20.0719 9.61774L20.1404 9.67519L25.1359 14.4669C25.369 14.6905 25.3903 15.0497 25.1995 15.298L25.1359 15.3689L20.1404 20.1621C19.7653 20.5221 19.1554 20.291 19.0887 19.8003L19.0828 19.7111V17.44L18.7965 17.4651C16.7968 17.6737 14.8801 18.5745 13.0344 20.1824C12.6018 20.5592 11.9325 20.2029 12.0037 19.6336C12.5577 15.2007 14.8759 12.7573 18.8333 12.4508L19.0828 12.4345V10.1262V12.4345ZM20.3328 11.5918V13.0429C20.3328 13.3881 20.0529 13.6679 19.7078 13.6679C16.4799 13.6679 14.4794 15.0647 13.615 17.9655L13.5492 18.1977L13.8426 18.0004C15.7064 16.7822 17.6642 16.1679 19.7078 16.1679C20.0242 16.1679 20.2857 16.403 20.327 16.7081L20.3328 16.7929V18.2453L23.8004 14.918L20.3328 11.5918Z" fill="#333333"/>
</g>
<defs>
<filter id="filter0_d_2159_48252" x="0" y="0" width="34" height="34" filterUnits="userSpaceOnUse" color-interpolation-filters="sRGB">
<feFlood flood-opacity="0" result="BackgroundImageFix"/>
<feColorMatrix in="SourceAlpha" type="matrix" values="0 0 0 0 0 0 0 0 0 0 0 0 0 0 0 0 0 0 127 0" result="hardAlpha"/>
<feOffset/>
<feGaussianBlur stdDeviation="1"/>
<feComposite in2="hardAlpha" operator="out"/>
<feColorMatrix type="matrix" values="0 0 0 0 0 0 0 0 0 0 0 0 0 0 0 0 0 0 0.25 0"/>
<feBlend mode="normal" in2="BackgroundImageFix" result="effect1_dropShadow_2159_48252"/>
<feBlend mode="normal" in="SourceGraphic" in2="effect1_dropShadow_2159_48252" result="shape"/>
</filter>
</defs>
</svg>
