<svg width="36" height="36" viewBox="0 0 36 36" fill="none" xmlns="http://www.w3.org/2000/svg">
<path d="M14 18H23M14 24H23M26 31.5H11C10.2044 31.5 9.44129 31.1839 8.87868 30.6213C8.31607 30.0587 8 29.2956 8 28.5V7.5C8 6.70435 8.31607 5.94129 8.87868 5.37868C9.44129 4.81607 10.2044 4.5 11 4.5H19.379C19.7768 4.50008 20.1583 4.65818 20.4395 4.9395L28.5605 13.0605C28.8418 13.3417 28.9999 13.7232 29 14.121V28.5C29 29.2956 28.6839 30.0587 28.1213 30.6213C27.5587 31.1839 26.7956 31.5 26 31.5Z" stroke="white" stroke-width="2" stroke-linecap="round" stroke-linejoin="round"/>
</svg>
