<svg width="55" height="48" viewBox="0 0 55 48" fill="none" xmlns="http://www.w3.org/2000/svg">
<path d="M35.376 2H16.624C16.1933 2 15.7802 2.1711 15.4757 2.47567C15.1711 2.78023 15 3.19331 15 3.62403V22.376C15 22.8067 15.1711 23.2198 15.4757 23.5243C15.7802 23.8289 16.1933 24 16.624 24H35.376C35.8067 24 36.2198 23.8289 36.5243 23.5243C36.8289 23.2198 37 22.8067 37 22.376V3.62403C37 3.19331 36.8289 2.78023 36.5243 2.47567C36.2198 2.1711 35.8067 2 35.376 2ZM21.5572 20.7412H18.2496V10.2347H21.5572V20.7412ZM19.9011 8.77875C19.5259 8.77663 19.1598 8.66343 18.8488 8.45341C18.5379 8.2434 18.2962 7.94598 18.1541 7.59871C18.0121 7.25144 17.9761 6.86987 18.0507 6.50217C18.1253 6.13446 18.3072 5.79709 18.5733 5.53263C18.8395 5.26818 19.178 5.08849 19.5462 5.01625C19.9144 4.94402 20.2957 4.98246 20.642 5.12674C20.9884 5.27101 21.2842 5.51465 21.4923 5.82691C21.7003 6.13917 21.8111 6.50605 21.8108 6.88125C21.8144 7.13245 21.7673 7.38178 21.6724 7.6144C21.5776 7.84702 21.4368 8.05816 21.2586 8.23523C21.0804 8.41229 20.8684 8.55167 20.6351 8.64505C20.4019 8.73843 20.1523 8.7839 19.9011 8.77875ZM33.7489 20.7504H30.4428V15.0106C30.4428 13.3178 29.7232 12.7953 28.7943 12.7953C27.8135 12.7953 26.851 13.5347 26.851 15.0533V20.7504H23.5433V10.2424H26.7242V11.6983H26.7669C27.0862 11.0521 28.2046 9.9475 29.9111 9.9475C31.7567 9.9475 33.7504 11.0429 33.7504 14.2512L33.7489 20.7504Z" fill="#0A66C2"/>
</svg>
